<?xml version="1.0" encoding="UTF-8" standalone="no"?>
<svg
   version="1.1"
   viewBox="0 0 512 511.99999"
   x="0px"
   y="0px"
   id="svg2"
   sodipodi:docname="d10.svg"
   width="512"
   height="512"
   inkscape:version="1.4 (86a8ad7, 2024-10-11)"
   xmlns:inkscape="http://www.inkscape.org/namespaces/inkscape"
   xmlns:sodipodi="http://sodipodi.sourceforge.net/DTD/sodipodi-0.dtd"
   xmlns="http://www.w3.org/2000/svg"
   xmlns:svg="http://www.w3.org/2000/svg">
  <defs
     id="defs2" />
  <sodipodi:namedview
     id="namedview2"
     pagecolor="#505050"
     bordercolor="#ffffff"
     borderopacity="1"
     inkscape:showpageshadow="0"
     inkscape:pageopacity="0"
     inkscape:pagecheckerboard="1"
     inkscape:deskcolor="#505050"
     inkscape:zoom="1.5761719"
     inkscape:cx="255.68277"
     inkscape:cy="256"
     inkscape:window-width="1920"
     inkscape:window-height="1009"
     inkscape:window-x="1912"
     inkscape:window-y="-8"
     inkscape:window-maximized="1"
     inkscape:current-layer="g1" />
  <g
     transform="matrix(1.6718641,0,0,1.6718641,-843.30588,-579.29575)"
     id="g1">
    <path
       id="path1"
       inkscape:label="background"
       d="M 657.25967 356.07875 C 656.80093 356.15216 656.3273 356.56489 655.67905 357.25516 C 655.03084 357.94541 651.12526 362.33297 647.00026 367.00522 C 642.87526 371.67748 639.26716 375.72444 638.98268 375.99944 C 638.69819 376.27444 632.18114 383.47455 624.50011 391.99955 C 616.81908 400.52455 610.27215 407.72465 609.95095 407.99965 C 609.62975 408.27465 605.3469 412.99972 600.43453 418.49972 C 585.72262 434.97151 584.70453 436.10509 579.39818 441.91459 C 576.5923 444.98653 572.77362 449.29993 570.91215 451.49993 C 569.05067 453.69993 565.00574 458.2 561.92377 461.5 C 558.84181 464.8 554.33653 469.7417 551.91085 472.48138 C 549.48517 475.22105 547.0496 477.95757 546.4996 478.56203 C 545.9496 479.16648 541.89954 483.67069 537.49954 488.57144 C 533.09954 493.47219 526.91196 500.22321 523.74946 503.57504 C 520.58696 506.92687 517.99942 510.02883 517.99942 510.46761 C 517.99942 510.90638 519.01193 512.13918 520.24943 513.20711 C 521.48693 514.27505 526.78195 519.27743 532.01586 524.32401 C 537.24976 529.37058 548.90986 540.47557 557.92608 549.00057 C 566.9423 557.52557 579.7558 569.67458 586.40056 575.99958 C 600.9821 589.87944 616.06203 604.20461 629.56206 616.99985 C 635.07486 622.22485 643.52401 630.25168 648.33788 634.83641 L 657.09028 643.17174 L 661.79475 638.9112 C 664.3825 636.56773 671.6985 629.66589 678.05186 623.57465 C 684.40523 617.4834 696.54022 605.97472 705.01933 597.99972 C 713.49845 590.02472 725.62558 578.52023 731.9681 572.43413 C 738.31062 566.34803 750.92483 554.35537 759.99983 545.78326 C 769.07483 537.21116 781.12704 525.76531 786.78271 520.34851 L 797.06666 510.50032 L 794.75005 508.0003 C 793.47609 506.6253 784.13389 496.27515 773.99057 485.00015 C 763.84725 473.72515 755.31272 464.27502 755.02433 464.00002 C 754.73594 463.72502 752.69977 461.46397 750.49977 458.97545 C 745.8925 453.76396 730.85016 437.09938 723.4552 429.01497 C 720.68045 425.98152 716.40538 421.21906 713.95513 418.43079 C 711.50489 415.64251 703.20633 406.41738 695.51343 397.93066 C 687.82054 389.44393 680.17042 380.94179 678.51331 379.03685 C 675.15042 375.171 668.29097 367.56291 662.70363 361.50052 C 660.67603 359.30052 659.23719 357.49807 658.74683 356.93623 C 658.1613 356.27062 657.71841 356.00534 657.25967 356.07875 z "
       style="fill:#2b2b45;fill-opacity:1" />
    <g
       id="g9217"
       inkscape:label="shading">
      <path
         style="display:inline;opacity:0.25;fill:#000000;fill-opacity:1;stroke-width:1.06707;stroke-linecap:round;stroke-linejoin:round;stroke-miterlimit:5"
         d="M 527.55917,505.12194 649.37409,368.88657 592.45123,490.70149 Z"
         id="path9222"
         inkscape:label="shade25" />
      <path
         style="opacity:0.33;fill:#000000;stroke-width:1.06707;stroke-linecap:round;stroke-linejoin:round;stroke-miterlimit:5"
         d="m 524.90277,511.95269 66.41,-20.11275 64.51258,25.80504 0.75897,119.538 z"
         id="path9219"
         inkscape:label="shade33" />
      <path
         style="fill:#000000;stroke-width:1.784;stroke-linecap:round;stroke-linejoin:round;stroke-miterlimit:5;opacity:0.5"
         d="M 148.46097,242.35936 254.41388,29.819083 365.44238,238.55266 255.68278,288.03965 Z"
         id="path9217"
         inkscape:label="shade50"
         transform="matrix(0.59813474,0,0,0.59813474,504.41054,346.49691)" />
      <path
         style="opacity:0.66;fill:#000000;stroke-width:1.06707;stroke-linecap:round;stroke-linejoin:round;stroke-miterlimit:5"
         d="m 656.58432,518.78343 65.27154,-26.94349 64.89207,17.07686 -126.36876,126.74824 z"
         id="path9220"
         inkscape:label="shade66" />
      <path
         style="opacity:0.75;fill:#000000;stroke-width:1.06707;stroke-linecap:round;stroke-linejoin:round;stroke-miterlimit:5"
         d="m 663.79455,369.26605 58.4408,118.77904 62.99464,20.87171 -68.30744,-83.48686 z"
         id="path9218"
         inkscape:label="shade75" />
    </g>
    <path
       id="path9221"
       style="fill:#000000;fill-opacity:1;stroke-width:5.00001"
       d="m 653.0469,356.06707 v 2.99116 h -2.9911 v 2.98995 h -2.98996 v 2.99111 h -2.99115 v 2.99 2.99111 h -2.98996 v 2.99115 h -2.99115 v 2.98996 h -2.99116 v 2.99115 h -2.98995 v 2.98996 h -2.99116 v 2.99115 h -2.98995 v 2.99111 h -2.99111 v 2.99 h -2.99115 v 2.99111 h -2.98996 v 2.99115 2.98996 h -2.99115 v 2.99115 h -2.99116 v 2.98996 h -2.98995 v 2.99115 h -2.99116 v 2.99111 h -2.98995 v 2.98995 h -2.99111 v 2.99116 h -2.99115 v 2.98995 h -2.98996 v 2.99116 h -2.99115 v 2.99115 2.98996 h -2.98996 v 2.99115 h -2.99115 v 2.98996 h -2.99116 v 2.9911 h -2.98995 v 2.99116 h -2.99111 v 2.98995 h -2.98995 v 2.99116 h -2.99116 v 2.98995 h -2.99115 v 2.99116 h -2.98996 v 2.99115 2.98996 h -2.99115 v 2.9911 h -2.98996 v 2.99116 h -2.99115 v 2.98995 h -2.99111 v 2.99116 h -2.98995 v 2.98995 h -2.99116 v 2.99116 h -2.99115 v 2.99115 h -2.98996 v 2.98996 h -2.99115 v 2.9911 2.98996 h -2.98996 v 2.99115 H 530.429 v 2.99116 h -2.99111 v 2.98995 h -2.98995 v 2.99116 h -2.99116 v 2.98995 h -2.98995 v 2.99116 h -2.99115 v 2.9911 h 2.99115 v 2.98996 h 2.98995 v 2.99115 h 2.99116 v 2.98996 h 2.98995 v 2.99115 h 2.99111 v 2.99116 h 2.99115 v 2.98995 h 2.98996 v 2.99116 h 2.99115 v 2.98995 h 2.98996 v 2.99111 h 2.99115 v 2.99115 h 2.99116 v 2.98996 h 2.98995 v 2.99115 h 2.99111 v 2.99116 h 2.99115 v 2.98995 h 2.98996 v 2.99116 h 2.99115 v 2.98995 h 2.98996 2.99115 v 2.99111 h 2.99116 v 2.99115 h 2.98995 v 2.98996 h 2.99111 v 2.99115 h 2.98995 v 2.98996 h 2.99116 v 2.99115 h 2.99115 v 2.99111 h 2.98996 v 2.99 h 2.99115 v 2.99111 h 2.98996 v 2.98995 h 2.99115 v 2.99116 h 2.99111 v 2.99115 h 2.98995 v 2.98996 h 2.99116 v 2.99115 h 2.98995 v 2.98996 h 2.99116 v 2.99115 h 2.99115 v 2.99111 h 2.98996 v 2.98995 h 2.99115 v 2.99116 h 2.99111 2.98995 v 2.99115 h 2.99116 v 2.98996 h 2.98995 v 2.99115 h 2.99116 v 2.98996 h 2.99115 v 2.9911 h 2.98996 v 2.99116 h 2.99115 v 2.98995 h 2.98996 v 2.99115 h 2.9911 v 2.98996 h 2.99116 2.98995 2.99116 v -2.98996 h 2.98995 v -2.99115 h 2.99116 v -2.98995 h 2.9911 v -2.99116 h 2.99001 v -2.9911 h 2.9911 v -2.98996 h 2.98996 v -2.99115 h 2.99115 v -2.98996 h 2.99116 v -2.99115 h 2.98995 2.99116 v -2.99116 h 2.98995 v -2.98995 h 2.99116 v -2.99111 h 2.9911 v -2.99115 h 2.98996 v -2.98996 h 2.99115 v -2.99115 h 2.99116 v -2.98996 h 2.98995 v -2.99115 h 2.99116 v -2.99116 h 2.98995 v -2.98995 h 2.99116 v -2.99111 h 2.9911 v -2.99 h 2.98996 v -2.99111 h 2.99115 v -2.99115 h 2.98996 v -2.98996 h 2.99115 v -2.99115 h 2.99116 v -2.98996 h 2.98995 v -2.99115 h 2.99111 v -2.99111 h 2.99 2.99111 v -2.98995 h 2.99115 v -2.99116 h 2.98996 v -2.98995 h 2.99115 v -2.99116 h 2.98996 v -2.99115 h 2.99115 v -2.98996 h 2.99111 v -2.99115 h 2.99 v -2.99111 h 2.99111 v -2.98995 h 2.99115 v -2.99116 h 2.98996 v -2.98995 h 2.99115 V 523.545 h 2.98996 v -2.99115 h 2.99115 v -2.98996 h 2.99111 v -2.99115 h 2.98995 v -2.98996 h 2.99116 v -2.9911 h -2.99116 v -2.99116 h -2.98995 v -2.98995 h -2.99111 v -2.99116 h -2.99115 v -2.98995 h -2.98996 v -2.99116 h -2.99115 v -2.99115 h -2.98996 v -2.98996 -2.9911 h -2.99115 v -2.98996 h -2.99111 v -2.99115 h -2.99 v -2.99116 h -2.99111 v -2.98995 h -2.99115 v -2.99116 h -2.98996 v -2.98995 h -2.99115 v -2.99116 h -2.98996 v -2.9911 h -2.99115 v -2.98996 -2.99115 h -2.99111 v -2.99116 h -2.99 v -2.98995 H 742.767 v -2.99116 h -2.98995 v -2.98995 h -2.99116 v -2.99116 h -2.99115 v -2.9911 h -2.98996 v -2.98996 h -2.99115 v -2.99115 h -2.98996 v -2.98996 -2.99115 h -2.9911 v -2.99116 h -2.99116 v -2.98995 h -2.98995 v -2.99116 h -2.99116 v -2.98995 h -2.98995 v -2.99111 h -2.99116 v -2.99115 h -2.99115 v -2.98996 h -2.98996 v -2.99115 h -2.9911 v -2.98996 -2.99115 h -2.99116 v -2.99111 h -2.98995 v -2.99 h -2.99116 v -2.99111 h -2.98995 v -2.99115 h -2.99116 v -2.98996 h -2.99115 v -2.99115 h -2.98996 v -2.98996 h -2.9911 v -2.99115 h -2.99001 v -2.99111 -2.99 h -2.9911 v -2.99111 h -2.99116 v -2.98995 h -2.98995 v -2.99116 h -2.99116 -2.98995 z m 2.99116,20.93444 h 2.98995 v 2.99115 h 2.99116 v 2.98996 2.99115 h 2.98995 v 2.99111 2.99 h 2.99116 v 2.99111 2.99115 h 2.9911 v 2.98996 2.99115 h 2.99001 v 2.98996 2.99115 h 2.9911 v 2.99111 2.98995 h 2.98996 v 2.99116 2.98995 h 2.99115 v 2.99116 2.99115 h 2.99116 v 2.98996 2.99115 h 2.98995 v 2.98996 h 2.99116 v 2.9911 2.99116 h 2.98995 v 2.98995 2.99116 h 2.99116 v 2.98995 2.99116 h 2.9911 v 2.99115 2.98996 h 2.98996 v 2.9911 2.99116 h 2.99115 v 2.98995 2.99116 h 2.99116 v 2.98995 2.99116 h 2.98995 v 2.99115 2.98996 h 2.99116 v 2.9911 h -2.99116 v 2.98996 h -2.98995 -2.99116 v 2.99115 h -2.99115 -2.98996 v 2.99116 h -2.9911 -2.99116 -2.98995 v 2.98995 h -2.99116 -2.98995 v 2.99116 h -2.99116 -2.99115 -2.98996 v 2.98995 h -2.9911 -2.99001 v 2.99116 h -2.9911 -2.99116 v 2.9911 h -2.98995 -2.99116 -2.98995 -2.99116 -2.9911 v -2.9911 h -2.98996 -2.99115 v -2.99116 h -2.98996 -2.99115 -2.99116 v -2.98995 h -2.98995 -2.99116 v -2.99116 h -2.98995 -2.99111 v -2.98995 h -2.99115 -2.98996 -2.99115 v -2.99116 h -2.99116 -2.98995 v -2.99115 h -2.99116 -2.98995 v -2.98996 h -2.99111 v -2.9911 h 2.99111 v -2.98996 -2.99115 h 2.98995 v -2.99116 -2.98995 h 2.99116 v -2.99116 -2.98995 h 2.98995 v -2.99116 -2.9911 h 2.99116 v -2.98996 -2.99115 h 2.99115 v -2.99116 -2.98995 h 2.98996 v -2.99116 h 2.99115 v -2.98995 -2.99116 h 2.99111 v -2.9911 -2.98996 h 2.98995 v -2.99115 -2.98996 h 2.99116 v -2.99115 -2.99116 h 2.98995 v -2.98995 -2.99116 h 2.99116 v -2.98995 -2.99111 h 2.99115 v -2.99115 -2.98996 h 2.98996 v -2.99115 -2.98996 h 2.99115 v -2.99115 -2.99111 h 2.98996 v -2.99 -2.99111 h 2.9911 v -2.99115 -2.98996 h 2.99116 z m -29.9067,26.91674 h 2.98995 v 2.98996 h -2.98995 v 2.99115 2.99111 h -2.99111 v 2.98995 2.99116 h -2.99115 v 2.98995 2.99116 h -2.98996 v 2.99115 2.98996 h -2.99115 v 2.99115 2.98996 h -2.99116 v 2.9911 2.99116 h -2.98995 v 2.98995 2.99116 h -2.99116 v 2.98995 2.99116 h -2.98995 v 2.99115 h -2.99111 v 2.98996 2.9911 h -2.99115 v 2.99116 2.98995 h -2.98996 v 2.99116 2.98995 h -2.99115 v 2.99116 2.99115 h -2.98996 v 2.98996 h -2.99115 v 2.9911 h -2.99116 -2.98995 v 2.98996 h -2.99111 -2.98995 -2.99116 v 2.99115 h -2.99115 -2.98996 -2.99115 -2.98996 v 2.99116 h -2.99115 -2.99111 -2.98995 -2.99116 v -2.99116 h 2.99116 v -2.99115 h 2.98995 v -2.98996 h 2.99111 v -2.9911 h 2.99115 v -2.98996 h 2.98996 v -2.99115 h 2.99115 v -2.99116 -2.98995 h 2.98996 v -2.99116 h 2.99115 v -2.98995 h 2.99116 v -2.99116 h 2.98995 v -2.9911 h 2.99111 v -2.98996 h 2.98995 v -2.99115 h 2.99116 v -2.99116 h 2.99115 v -2.98995 h 2.98996 v -2.99116 -2.98995 h 2.99115 v -2.99116 h 2.98996 v -2.9911 h 2.99115 v -2.98996 h 2.99111 v -2.99115 h 2.98995 v -2.98996 h 2.99116 v -2.99115 h 2.98995 v -2.99116 h 2.99116 v -2.98995 h 2.99115 v -2.99116 -2.98995 h 2.98996 v -2.99111 h 2.99115 v -2.99115 h 2.99111 z m 59.8134,0 h 2.98995 v 2.98996 h 2.99116 v 2.99115 h 2.98995 v 2.99111 h 2.99116 v 2.98995 h 2.9911 v 2.99116 2.98995 h 2.98996 v 2.99116 h 2.99115 v 2.99115 h 2.99116 v 2.98996 h 2.98995 v 2.99115 h 2.99116 v 2.98996 h 2.98995 v 2.9911 h 2.99116 v 2.99116 h 2.9911 v 2.98995 h 2.98996 v 2.99116 2.98995 h 2.99115 v 2.99116 h 2.98996 v 2.99115 h 2.99115 v 2.98996 h 2.99116 v 2.9911 h 2.98995 v 2.99116 h 2.99111 v 2.98995 h 2.99 v 2.99116 h 2.99111 v 2.98995 h 2.99115 v 2.99116 2.99115 h 2.98996 v 2.98996 h 2.99115 v 2.9911 h 2.98996 v 2.98996 h 2.99115 v 2.99115 h 2.99111 v 2.99116 2.98995 h -2.99111 v -2.98995 h -2.99115 -2.98996 -2.99115 v -2.99116 h -2.98996 -2.99115 -2.99111 v -2.99115 h -2.99 -2.99111 -2.98995 -2.99116 v -2.98996 h -2.99115 -2.98996 v -2.9911 h -2.99115 v -2.98996 h -2.98996 v -2.99115 -2.99116 h -2.9911 v -2.98995 -2.99116 h -2.99116 v -2.98995 -2.99116 h -2.98995 v -2.9911 -2.98996 h -2.99116 v -2.99115 h -2.98995 v -2.99116 -2.98995 h -2.99116 v -2.99116 -2.98995 h -2.99115 v -2.99116 -2.9911 h -2.98996 v -2.98996 -2.99115 h -2.9911 v -2.98996 -2.99115 h -2.99116 v -2.99116 -2.98995 h -2.98995 v -2.99116 -2.98995 h -2.99116 v -2.99111 -2.99115 h -2.98995 z m 38.87891,92.71121 h 2.98996 v 2.98995 h 2.99115 2.98996 2.99115 v 2.99116 h 2.99116 2.98995 2.99111 2.99 v 2.98995 h 2.99111 2.99115 2.98996 v 2.99116 h 2.99115 2.98996 2.99115 2.99111 v 2.9911 h 2.99 2.99111 2.99115 v 2.98996 2.99115 h -2.99115 v 2.98996 h -2.99111 -2.99 v 2.99115 h -2.99111 v 2.99116 h -2.99115 v 2.98995 h -2.98996 v 2.99116 h -2.99115 v 2.98995 h -2.98996 v 2.99111 h -2.99115 v 2.99115 h -2.99111 v 2.98996 h -2.99 v 2.99115 H 742.767 v 2.99116 h -2.98995 v 2.98995 h -2.99116 v 2.99116 h -2.99115 v 2.98995 h -2.98996 v 2.99111 h -2.99115 v 2.99115 h -2.98996 v 2.98996 h -2.9911 v 2.99115 h -2.99116 v 2.98996 h -2.98995 -2.99116 v 2.99115 h -2.98995 v 2.99111 h -2.99116 v 2.99 h -2.99115 v 2.99111 h -2.98996 v 2.98995 h -2.9911 v 2.99116 h -2.99116 v 2.99115 h -2.98995 v 2.98996 h -2.99116 v 2.99115 h -2.98995 v 2.98996 h -2.99116 v 2.99115 h -2.99115 v 2.99111 h -2.98996 v 2.98995 h -2.9911 v 2.99116 h -2.99001 v 2.99115 h -2.9911 -2.99116 v 2.98996 h -2.98995 v -2.98996 -2.99115 -2.99116 -2.98995 -2.99111 -2.99115 -2.98996 -2.99115 -2.98996 -2.99115 -2.99116 -2.98995 -2.99111 -2.99 -2.99111 -2.99115 -2.98996 -2.99115 -2.98996 -2.99115 -2.99111 -2.98995 -2.99116 -2.98995 -2.99116 -2.99115 -2.98996 -2.99115 -2.99111 -2.98995 -2.99116 -2.98995 -2.99116 h 2.98995 v -2.99115 h 2.99116 2.9911 v -2.98996 h 2.99001 2.9911 2.98996 v -2.99115 h 2.99115 2.99116 v -2.98996 h 2.98995 2.99116 2.98995 v -2.9911 h 2.99116 2.9911 v -2.99116 h 2.98996 2.99115 2.99116 v -2.98995 h 2.98995 2.99116 v -2.99116 h 2.98995 2.99116 2.9911 z m -146.54349,2.98995 h 2.98995 2.99116 2.99115 2.98996 2.99115 2.98996 2.99115 v 2.99116 h 2.99111 2.98995 v 2.98995 h 2.99116 2.98995 2.99116 v 2.99116 h 2.99115 2.98996 v 2.9911 h 2.99115 2.99111 2.98995 v 2.98996 h 2.99116 2.98995 v 2.99115 h 2.99116 2.99115 v 2.98996 h 2.98996 2.99115 2.98996 v 2.99115 h 2.9911 v 2.99116 2.98995 2.99116 2.98995 2.99111 2.99115 2.98996 2.99115 2.99116 2.98995 2.99116 2.98995 2.99111 2.99115 2.98996 2.99115 2.98996 2.99115 2.99111 2.99 2.99111 2.98995 2.99116 2.99115 2.98996 2.99115 2.98996 2.99115 2.99111 2.98995 2.99116 2.99115 2.98996 h -2.9911 -2.98996 v -2.98996 h -2.99115 v -2.99115 h -2.98996 v -2.99116 h -2.99115 v -2.98995 h -2.99116 v -2.99111 h -2.98995 v -2.99115 h -2.99116 v -2.98996 h -2.98995 v -2.99115 h -2.99111 v -2.98996 h -2.99115 v -2.99115 h -2.98996 v -2.99116 h -2.99115 v -2.98995 h -2.99116 v -2.99111 h -2.98995 v -2.99 h -2.99116 v -2.99111 h -2.98995 v -2.99115 h -2.99111 v -2.98996 h -2.99115 -2.98996 v -2.99115 h -2.99115 v -2.98996 h -2.98996 v -2.99115 h -2.99115 v -2.99111 h -2.99116 v -2.98995 h -2.98995 v -2.99116 h -2.99111 v -2.98995 h -2.98995 v -2.99116 h -2.99116 v -2.99115 h -2.99115 v -2.98996 h -2.98996 v -2.99115 h -2.99115 v -2.99111 h -2.98996 v -2.98995 h -2.99115 v -2.99116 h -2.99111 v -2.98995 h -2.98995 V 523.545 h -2.99116 v -2.99115 h -2.99115 v -2.98996 h -2.98996 v -2.99115 h -2.99115 v -2.98996 h 2.99115 2.98996 2.99115 2.99116 v -2.9911 h 2.98995 2.99111 2.99115 v -2.99116 h 2.98996 2.99115 2.98996 2.99115 v -2.98995 h 2.99116 2.98995 2.99111 z"
       inkscape:label="edges" />
  </g>
</svg>
